<?xml version="1.0" encoding="UTF-8" standalone="no"?>
<svg width="158px" height="158px" viewBox="0 0 158 158" version="1.1" xmlns="http://www.w3.org/2000/svg" xmlns:xlink="http://www.w3.org/1999/xlink">
    <!-- Generator: Sketch 3.8.1 (29687) - http://www.bohemiancoding.com/sketch -->
    <title>DevCircle</title>
    <desc>Created with Sketch.</desc>
    <defs></defs>
    <g id="Page-1" stroke="none" stroke-width="1" fill="none" fill-rule="evenodd">
        <g id="DevCircle" fill="#FFFFFF">
            <path d="M78.86,0 C35.3068246,-1.0658141e-14 1.48769885e-14,35.3068246 9.54791801e-15,78.86 C4.21884749e-15,122.413175 35.3068246,157.72 78.86,157.72 C122.413175,157.72 157.72,122.413175 157.72,78.86 C157.642942,35.3387831 122.381217,0.0770581091 78.86,1.42108547e-14 L78.86,0 Z M78.86,154.28 C37.2066842,154.28 3.44,120.513316 3.44,78.86 C3.44,37.2066842 37.2066842,3.44 78.86,3.44 C120.513316,3.44 154.28,37.2066842 154.28,78.86 C154.235907,120.495038 120.495038,154.235907 78.86,154.28 L78.86,154.28 Z" id="Shape"></path>
            <path d="M75.93,108.9 L68.63,108.9 C67.6800702,108.9 66.91,108.12993 66.91,107.18 C66.91,106.23007 67.6800702,105.46 68.63,105.46 L75.92,105.46 C76.8699297,105.457239 77.6422385,106.22507 77.6449999,107.175 C77.6477613,108.12493 76.8799297,108.897239 75.93,108.9 L75.93,108.9 Z" id="Shape"></path>
            <path d="M75.93,109.4 L68.63,109.4 C67.4039279,109.4 66.41,108.406072 66.41,107.18 C66.41,105.953928 67.4039279,104.96 68.63,104.96 L75.92,104.96 C77.1460721,104.957239 78.1422386,105.948928 78.145,107.175 C78.1477614,108.401072 77.1560721,109.397239 75.93,109.4 L75.93,109.4 Z M68.63,106 C67.9562126,106 67.41,106.546213 67.41,107.22 C67.41,107.893787 67.9562126,108.44 68.63,108.44 L75.92,108.44 C76.5937874,108.44 77.14,107.893787 77.14,107.22 C77.14,106.546213 76.5937874,106 75.92,106 L68.63,106 L68.63,106 Z" id="Shape"></path>
            <path d="M75.93,108.9 L25.28,108.9 C24.6654252,108.900156 24.0974639,108.572387 23.790109,108.040189 C23.4827542,107.507991 23.4827126,106.852237 23.79,106.32 L65.52,34 C65.8350957,33.4634164 66.4154385,33.1388632 67.0375739,33.1513059 C67.6597093,33.1637486 68.226611,33.5112467 68.52,34.06 L84.74,64.84 C85.1459978,65.3823434 85.1958151,66.1124954 84.8672435,66.7049574 C84.5386718,67.2974194 83.8929222,67.6418193 83.2178671,67.5846248 C82.542812,67.5274304 81.9642102,67.0792968 81.74,66.44 L66.98,38.44 L28.3,105.44 L75.93,105.44 C76.8854526,105.44 77.66,106.214547 77.66,107.17 C77.66,108.125453 76.8854526,108.9 75.93,108.9 L75.93,108.9 Z" id="Shape"></path>
            <path d="M75.93,109.4 L25.28,109.4 C24.4873307,109.39908 23.7552915,108.975587 23.3593551,108.288885 C22.9634188,107.602183 22.9636645,106.756472 23.36,106.07 L65.09,33.79 C65.4942765,33.0927221 66.2447184,32.6693382 67.0505873,32.683877 C67.8564561,32.6984159 68.591138,33.1485933 68.97,33.86 L85.18,64.61 C85.4547478,65.1311032 85.5111122,65.7400412 85.3366814,66.3027212 C85.1622506,66.8654013 84.7713288,67.3356805 84.25,67.61 C83.1623151,68.1534992 81.8395346,67.7434372 81.25,66.68 L66.92,39.49 L29.12,105 L75.92,105 C77.0215098,105.146295 77.8451903,106.084451 77.8477157,107.19563 C77.8502411,108.30681 77.0308335,109.2487 75.93,109.4 L75.93,109.4 Z M67,33.69 C66.5839005,33.7076861 66.2061409,33.9381194 66,34.3 L24.23,106.57 C24.0117574,106.948003 24.0120853,107.413801 24.2308598,107.791497 C24.4496343,108.169192 24.8535201,108.401235 25.29,108.4 L75.93,108.4 C76.6037874,108.4 77.15,107.853787 77.15,107.18 C77.15,106.506213 76.6037874,105.96 75.93,105.96 L27.39,105.96 L67,37.42 L82.14,66.21 C82.4617563,66.7980198 83.1925581,67.023904 83.79,66.72 C84.0766666,66.5690606 84.2915249,66.3102975 84.3871971,66.00077 C84.4828692,65.6912425 84.4514976,65.356372 84.3,65.07 L68.09,34.34 C67.8768202,33.9365352 67.4563021,33.6857675 67,33.69 L67,33.69 L67,33.69 Z" id="Shape"></path>
            <path d="M75.92,108.9 C75.6179297,108.90157 75.3209596,108.822148 75.06,108.67 C74.6647507,108.441985 74.3763037,108.066258 74.2581478,107.625518 C74.139992,107.184778 74.2018116,106.715149 74.43,106.32 L102.68,57.38 C102.984389,56.8375229 103.55796,56.501665 104.18,56.501665 C104.80204,56.501665 105.375611,56.8375229 105.68,57.38 L133.93,106.32 C134.237287,106.852237 134.237246,107.507991 133.929891,108.040189 C133.622536,108.572387 133.054575,108.900156 132.44,108.9 L94.27,108.9 C93.3200702,108.9 92.55,108.12993 92.55,107.18 C92.55,106.23007 93.3200702,105.46 94.27,105.46 L129.46,105.46 L104.18,61.68 L77.41,108 C77.1130065,108.547732 76.543018,108.89202 75.92,108.9 L75.92,108.9 Z" id="Shape"></path>
            <path d="M132.44,109.4 L94.27,109.4 C93.0439279,109.4 92.05,108.406072 92.05,107.18 C92.05,105.953928 93.0439279,104.96 94.27,104.96 L128.6,104.96 L104.18,62.68 L77.85,108.29 C77.2173059,109.305157 75.9076527,109.658763 74.85,109.1 C73.8084792,108.487139 73.4484732,107.153784 74.04,106.1 L102.29,57.16 C102.687233,56.4756388 103.418707,56.0544505 104.21,56.0544505 C105.001293,56.0544505 105.732767,56.4756388 106.13,57.16 L134.38,106.1 C134.762887,106.787633 134.753073,107.62659 134.354204,108.305078 C133.955336,108.983565 133.227046,109.400146 132.44,109.4 L132.44,109.4 Z M94.27,106 C93.5962126,106 93.05,106.546213 93.05,107.22 C93.05,107.893787 93.5962126,108.44 94.27,108.44 L132.44,108.44 C132.874693,108.437669 133.27531,108.204218 133.491647,107.827174 C133.707983,107.45013 133.707356,106.986457 133.49,106.61 L105.23,57.63 C104.994211,57.2781597 104.598542,57.0670184 104.175,57.0670184 C103.751458,57.0670184 103.355789,57.2781597 103.12,57.63 L74.87,106.57 C74.5381306,107.15295 74.7391465,107.894475 75.32,108.23 C75.901793,108.552233 76.6341994,108.358102 76.98,107.79 L104.18,60.67 L130.33,106 L94.27,106 L94.27,106 Z" id="Shape"></path>
        </g>
    </g>
</svg>